<svg data-v-423bf9ae="" xmlns="http://www.w3.org/2000/svg" viewBox="0 0 651 90" class="iconLeft"><!----><!----><!----><g data-v-423bf9ae="" id="fc37d953-76c7-4fb2-8f1c-e7f4fa46962f" fill="white" transform="matrix(5.934717742604922,0,0,5.934717742604922,106.08307107038223,-11.172104339321642)"><path d="M6.02 14.35L7.45 14.35L7.45 9.35L4.13 9.35L4.13 10.53L6.02 10.53L6.02 11.41C6.02 12.47 5.39 13.23 4.26 13.23C2.83 13.23 2.32 11.98 2.32 10.19L2.32 8.64C2.32 6.85 2.90 5.71 4.26 5.71C5.35 5.71 5.74 6.45 6.03 7.31L7.45 6.83C7.04 5.52 6.16 4.41 4.24 4.41C1.82 4.41 0.66 6.22 0.66 9.53C0.66 12.70 1.69 14.52 3.72 14.52C5.01 14.52 5.60 13.79 5.92 13.01L6.02 13.01ZM12.75 14.52C14.24 14.52 15.25 13.86 15.74 13.02L14.78 12.18C14.38 12.85 13.71 13.29 12.78 13.29C11.54 13.29 10.78 12.49 10.78 11.35L10.78 11.12L15.96 11.12L15.96 10.54C15.96 8.41 14.67 6.96 12.64 6.96C10.58 6.96 9.24 8.43 9.24 10.75C9.24 13.05 10.54 14.52 12.75 14.52ZM12.64 8.12C13.71 8.12 14.41 8.86 14.41 10.00L14.41 10.14L10.78 10.14L10.78 10.04C10.78 8.92 11.55 8.12 12.64 8.12ZM19.50 14.35L19.50 9.45C19.50 8.61 20.29 8.20 21.07 8.20C22.05 8.20 22.57 8.78 22.57 9.93L22.57 14.35L24.09 14.35L24.09 9.70C24.09 7.95 23.11 6.96 21.66 6.96C20.47 6.96 19.88 7.60 19.57 8.36L19.50 8.36L19.50 7.13L17.98 7.13L17.98 14.35ZM29.55 14.52C31.04 14.52 32.05 13.86 32.54 13.02L31.58 12.18C31.18 12.85 30.51 13.29 29.58 13.29C28.34 13.29 27.58 12.49 27.58 11.35L27.58 11.12L32.76 11.12L32.76 10.54C32.76 8.41 31.47 6.96 29.44 6.96C27.38 6.96 26.04 8.43 26.04 10.75C26.04 13.05 27.34 14.52 29.55 14.52ZM29.44 8.12C30.51 8.12 31.21 8.86 31.21 10.00L31.21 10.14L27.58 10.14L27.58 10.04C27.58 8.92 28.35 8.12 29.44 8.12ZM34.66 14.35L40.73 14.35L40.73 13.12L38.11 13.12L38.11 10.42C38.11 9.41 38.77 8.58 40.01 8.58L41.44 8.58L41.44 7.13L40.57 7.13C39.10 7.13 38.47 8.04 38.19 9.04L38.11 9.04L38.11 7.13L34.66 7.13L34.66 8.36L36.58 8.36L36.58 13.12L34.66 13.12ZM49.83 14.35L49.83 13.15L48.92 13.15L48.92 9.52C48.92 7.87 47.80 6.96 45.98 6.96C44.45 6.96 43.47 7.62 43.06 8.40L43.97 9.14C44.37 8.54 44.91 8.15 45.84 8.15C46.87 8.15 47.39 8.65 47.39 9.62L47.39 10.18L46.00 10.18C43.86 10.18 42.84 10.93 42.84 12.33C42.84 13.69 43.79 14.52 45.26 14.52C46.40 14.52 47.15 14 47.43 13.13L47.50 13.13C47.59 13.86 48.02 14.35 48.89 14.35ZM45.70 13.40C44.88 13.40 44.38 13.06 44.38 12.42L44.38 12.14C44.38 11.49 44.91 11.14 46.03 11.14L47.39 11.14L47.39 12.19C47.39 12.91 46.68 13.40 45.70 13.40ZM57.79 14.35L57.79 13.12L54.71 13.12L54.71 8.36L57.79 8.36L57.79 7.13L54.71 7.13L54.71 4.58L53.28 4.58L53.28 6.38C53.28 6.94 53.07 7.13 52.54 7.13L50.96 7.13L50.96 8.36L53.19 8.36L53.19 12.52C53.19 13.59 53.77 14.35 55.03 14.35ZM63.15 14.52C64.64 14.52 65.65 13.86 66.14 13.02L65.18 12.18C64.78 12.85 64.11 13.29 63.18 13.29C61.94 13.29 61.18 12.49 61.18 11.35L61.18 11.12L66.36 11.12L66.36 10.54C66.36 8.41 65.07 6.96 63.04 6.96C60.98 6.96 59.64 8.43 59.64 10.75C59.64 13.05 60.94 14.52 63.15 14.52ZM63.04 8.12C64.11 8.12 64.81 8.86 64.81 10.00L64.81 10.14L61.18 10.14L61.18 10.04C61.18 8.92 61.95 8.12 63.04 8.12ZM71.68 14.52C73.57 14.52 74.44 13.43 74.89 12.10L73.47 11.62C73.18 12.52 72.77 13.22 71.67 13.22C70.28 13.22 69.68 12.08 69.68 10.29L69.68 8.64C69.68 6.85 70.28 5.71 71.67 5.71C72.77 5.71 73.18 6.41 73.47 7.31L74.89 6.83C74.44 5.50 73.57 4.41 71.68 4.41C69.20 4.41 68.01 6.23 68.01 9.46C68.01 12.70 69.20 14.52 71.68 14.52ZM81.83 14.35L83.22 14.35L83.22 4.58L81.41 4.58L79.90 8.46L79.80 8.46L78.30 4.58L76.38 4.58L76.38 14.35L77.77 14.35L77.77 9.67L77.73 6.73L77.84 6.73L79.80 11.76L81.76 6.73L81.87 6.73L81.83 9.67ZM85.15 14.35L88.06 14.35C90.54 14.35 91.74 12.64 91.74 9.46C91.74 6.29 90.54 4.58 88.06 4.58L85.15 4.58ZM86.70 13.06L86.70 5.87L87.96 5.87C89.39 5.87 90.09 6.87 90.09 8.65L90.09 10.28C90.09 12.05 89.39 13.06 87.96 13.06Z"></path></g><!----><g data-v-423bf9ae="" id="16a2227a-b203-48fa-bddf-60afbf07fce7" transform="matrix(1.0975609756097562,0,0,1.0975609756097562,0,0)" stroke="none" fill="white"><g data-name="Calque 2"><path d="M75.59 0H6.41A6.42 6.42 0 0 0 0 6.41v69.18A6.42 6.42 0 0 0 6.41 82h69.18A6.42 6.42 0 0 0 82 75.59V6.41A6.42 6.42 0 0 0 75.59 0zM6.41 2h69.18A4.42 4.42 0 0 1 80 6.41V15H2V6.41A4.42 4.42 0 0 1 6.41 2zm69.18 78H6.41A4.42 4.42 0 0 1 2 75.59V17h78v58.6a4.42 4.42 0 0 1-4.41 4.4z"></path><path d="M29.35 9h46a1 1 0 0 0 0-2h-46a1 1 0 0 0 0 2zM8.35 9h2a1 1 0 0 0 0-2h-2a1 1 0 0 0 0 2zM17.35 9h2a1 1 0 0 0 0-2h-2a1 1 0 0 0 0 2zM10.12 22.3a1 1 0 1 0-1.35 1.48l8.13 7.39-8.16 8.17a1 1 0 1 0 1.41 1.41l9.65-9.65zM27.25 39H20a1 1 0 1 0 0 2h7.29a1 1 0 0 0 0-2z"></path></g></g><!----></svg>