<svg data-v-423bf9ae="" xmlns="http://www.w3.org/2000/svg" viewBox="0 0 784 90" class="iconLeft"><!----><!----><defs data-v-423bf9ae=""><linearGradient data-v-423bf9ae="" gradientTransform="rotate(25)" id="0f347dae-a256-4b89-bf9d-158b5915f2c8" x1="0%" y1="0%" x2="100%" y2="0%"><stop data-v-423bf9ae="" offset="0%" style="stop-color: rgb(0, 0, 0); stop-opacity: 1;"></stop><stop data-v-423bf9ae="" offset="100%" style="stop-color: rgb(0, 0, 0); stop-opacity: 1;"></stop></linearGradient></defs><g data-v-423bf9ae="" id="37485624-7e45-434f-80b3-0cb820859e14" fill="url(#0f347dae-a256-4b89-bf9d-158b5915f2c8)" transform="matrix(6.514658628050826,0,0,6.514658628050826,119.66404960561715,0.21172456174471677)"><path d="M3.99 6.71L4.03 7.22C4.26 7.22 5.03 7.17 5.32 7.17L5.98 7.17L5.98 10.43L4.91 10.81C4.73 10.88 4.31 11.02 4.00 11.02C2.55 11.02 1.76 9.59 1.76 6.93C1.76 4.27 2.55 2.84 4.00 2.84C4.35 2.84 4.72 2.95 5.05 3.08L6.54 3.67L6.80 3.04C6.22 2.74 4.72 2.38 4.06 2.38L3.82 2.38C1.82 2.38 0.49 4.26 0.49 6.94C0.49 9.63 1.82 11.48 3.82 11.48C4.05 11.48 4.65 11.41 5.14 11.21L6.09 10.84L6.23 11.37L7.14 11.37L7.14 7.38C7.14 7.17 7.21 6.71 7.21 6.71ZM9.67 7.41C9.81 5.96 10.36 5.18 11.55 5.18C12.70 5.18 13.38 5.94 13.38 7.38ZM9.63 7.87L14.56 7.95L14.56 7.42C14.56 5.80 13.38 4.72 11.63 4.72C9.70 4.72 8.41 6.06 8.41 8.08C8.41 10.12 9.73 11.48 11.70 11.48C12.82 11.48 14.01 10.96 14.39 10.78L14.15 10.15L12.96 10.70C12.66 10.84 12.15 11.02 11.82 11.02C10.40 11.02 9.63 9.97 9.63 8.04ZM16.00 11.37L17.16 11.37L17.16 5.94L18.89 5.39C19.08 5.33 19.47 5.25 19.71 5.25C20.34 5.25 20.66 5.68 20.66 6.48L20.66 11.37L21.83 11.37L21.83 6.34C21.83 5.36 21.11 4.72 20.03 4.72C19.63 4.72 19.19 4.76 18.62 4.98L17.12 5.57L16.79 4.77L16.00 4.83ZM24.42 7.41C24.56 5.96 25.10 5.18 26.29 5.18C27.44 5.18 28.13 5.94 28.13 7.38ZM24.37 7.87L29.30 7.95L29.30 7.42C29.30 5.80 28.13 4.72 26.38 4.72C24.44 4.72 23.16 6.06 23.16 8.08C23.16 10.12 24.47 11.48 26.45 11.48C27.57 11.48 28.76 10.96 29.13 10.78L28.90 10.15L27.71 10.70C27.40 10.84 26.89 11.02 26.56 11.02C25.14 11.02 24.37 9.97 24.37 8.04ZM34.13 5.88L34.24 4.62C33.42 4.62 33.07 5.04 32.44 5.67L31.91 6.22L31.54 4.77L30.74 4.83L30.74 11.37L31.91 11.37L31.91 6.87L32.51 6.27C32.86 5.92 33.35 5.88 33.80 5.88ZM37.91 4.72C36.90 4.72 35.78 5.07 35.41 5.25L35.64 5.91L36.55 5.49C36.93 5.31 37.42 5.18 37.91 5.18C38.88 5.18 39.40 5.66 39.40 6.54L39.40 7.76L37.09 7.76C35.71 7.76 34.79 8.55 34.79 9.67C34.79 10.72 35.66 11.48 36.96 11.48C37.17 11.48 37.49 11.41 38.00 11.21L39.44 10.64L39.75 11.42L40.80 11.31C40.75 11.19 40.57 10.39 40.57 9.91L40.57 6.51C40.57 5.33 39.63 4.72 37.91 4.72ZM39.40 8.22L39.40 10.26L37.76 10.79C37.58 10.85 37.32 10.91 37.17 10.91C36.40 10.91 35.98 10.46 35.98 9.73C35.98 8.78 36.51 8.22 37.49 8.22ZM42.73 5.53L42.73 9.86C42.73 10.84 43.44 11.48 44.53 11.48C44.74 11.48 45.36 11.38 45.88 11.20L45.70 10.77C45.51 10.82 45.23 10.91 45.08 10.91C44.18 10.91 43.78 10.61 43.78 9.63C43.78 9.39 43.89 8.12 43.89 7.52L43.89 5.53L45.99 5.53L45.99 4.96C45.74 4.96 45.08 5.07 43.89 5.07L43.89 3.32L42.73 3.78L42.73 5.07L41.57 5.07L41.57 5.53ZM47.95 7.41C48.09 5.96 48.64 5.18 49.83 5.18C50.97 5.18 51.66 5.94 51.66 7.38ZM47.91 7.87L52.84 7.95L52.84 7.42C52.84 5.80 51.66 4.72 49.91 4.72C47.98 4.72 46.69 6.06 46.69 8.08C46.69 10.12 48.01 11.48 49.98 11.48C51.10 11.48 52.29 10.96 52.67 10.78L52.43 10.15L51.24 10.70C50.93 10.84 50.43 11.02 50.09 11.02C48.68 11.02 47.91 9.97 47.91 8.04ZM52.53 2.51L52.53 3.16C53.12 3.16 54.60 2.97 55.44 2.97L55.44 11.37L56.62 11.37L56.62 2.97C57.46 2.97 58.94 3.16 59.53 3.16L59.53 2.51ZM60.44 7.41C60.58 5.96 61.12 5.18 62.31 5.18C63.46 5.18 64.15 5.94 64.15 7.38ZM60.40 7.87L65.32 7.95L65.32 7.42C65.32 5.80 64.15 4.72 62.40 4.72C60.47 4.72 59.18 6.06 59.18 8.08C59.18 10.12 60.49 11.48 62.47 11.48C63.59 11.48 64.78 10.96 65.16 10.78L64.92 10.15L63.73 10.70C63.42 10.84 62.92 11.02 62.58 11.02C61.17 11.02 60.40 9.97 60.40 8.04ZM70.15 5.88L70.27 4.62C69.44 4.62 69.09 5.04 68.46 5.67L67.93 6.22L67.56 4.77L66.77 4.83L66.77 11.37L67.93 11.37L67.93 6.87L68.53 6.27C68.88 5.92 69.37 5.88 69.82 5.88ZM72.83 5.94L74.10 5.42C74.30 5.33 74.59 5.31 74.89 5.31C75.47 5.31 75.87 5.82 75.87 6.59L75.87 11.37L77.03 11.37L77.03 6.34C77.03 6.22 77.01 6.06 76.99 5.95L78.30 5.42C78.55 5.32 78.88 5.31 79.09 5.31C79.73 5.31 80.07 5.75 80.07 6.59L80.07 11.37L81.23 11.37L81.23 6.34C81.23 5.36 80.58 4.72 79.63 4.72C79.42 4.72 78.74 4.72 78.23 4.96L76.85 5.61C76.55 5.08 76.06 4.72 75.43 4.72C75.22 4.72 74.51 4.72 74.03 4.94L72.79 5.54L72.53 4.77L71.67 4.83L71.67 11.37L72.83 11.37ZM84.25 3.14L84.25 2.55C84.25 2.41 84.20 2.27 83.85 2.27L83.38 2.27C83.03 2.27 82.98 2.44 82.98 2.55L82.98 3.14C82.98 3.25 83.03 3.43 83.38 3.43L83.85 3.43C84.20 3.43 84.25 3.28 84.25 3.14ZM83.03 11.37L84.20 11.37L84.20 4.83L83.03 4.83ZM86.06 11.37L87.22 11.37L87.22 5.94L88.94 5.39C89.14 5.33 89.53 5.25 89.77 5.25C90.40 5.25 90.72 5.68 90.72 6.48L90.72 11.37L91.88 11.37L91.88 6.34C91.88 5.36 91.17 4.72 90.09 4.72C89.68 4.72 89.25 4.76 88.68 4.98L87.18 5.57L86.84 4.77L86.06 4.83ZM96.28 4.72C95.27 4.72 94.15 5.07 93.77 5.25L94.01 5.91L94.92 5.49C95.30 5.31 95.79 5.18 96.28 5.18C97.24 5.18 97.76 5.66 97.76 6.54L97.76 7.76L95.45 7.76C94.08 7.76 93.16 8.55 93.16 9.67C93.16 10.72 94.02 11.48 95.33 11.48C95.54 11.48 95.86 11.41 96.36 11.21L97.80 10.64L98.11 11.42L99.16 11.31C99.12 11.19 98.94 10.39 98.94 9.91L98.94 6.51C98.94 5.33 98.00 4.72 96.28 4.72ZM97.76 8.22L97.76 10.26L96.12 10.79C95.94 10.85 95.69 10.91 95.54 10.91C94.77 10.91 94.35 10.46 94.35 9.73C94.35 8.78 94.88 8.22 95.86 8.22ZM101.91 2.51L100.74 2.51L100.74 9.04C100.74 9.65 100.86 11.19 100.86 11.42C100.86 11.42 101.50 11.40 101.91 11.37Z"></path></g><defs data-v-423bf9ae=""><linearGradient data-v-423bf9ae="" gradientTransform="rotate(25)" id="7daabbd8-0bb4-416a-9bd7-8a224733b855" x1="0%" y1="0%" x2="100%" y2="0%"><stop data-v-423bf9ae="" offset="0%" style="stop-color: rgb(255, 0, 233); stop-opacity: 1;"></stop><stop data-v-423bf9ae="" offset="100%" style="stop-color: rgb(124, 0, 255); stop-opacity: 1;"></stop></linearGradient></defs><g data-v-423bf9ae="" id="2984f12c-e1f1-41ef-998d-2e85b8c5f5cd" transform="matrix(6.4281125298955555,0,0,6.4281125298955555,0.5718874701044427,-5.428110912191961)" stroke="none" fill="url(#7daabbd8-0bb4-416a-9bd7-8a224733b855)"><path d="M.313 1C.113 1 0 1.087 0 1.188v13.625c0 .1.113.188.313.188h15.5c.1 0 .188-.113.188-.313v-13.5c0-.1-.088-.188-.188-.188H.313zm1.688 2l4 2v1l-4 2V7l3-1.5-3-1.5V3zm6 4h5v1h-5V7z"></path></g><!----></svg>
